<svg width="17" height="17" viewBox="0 0 17 17" fill="none" xmlns="http://www.w3.org/2000/svg">
<g clip-path="url(#clip0_1629_788)">
<path d="M14.1667 2.125C14.5425 2.125 14.9028 2.27426 15.1685 2.53993C15.4342 2.80561 15.5834 3.16594 15.5834 3.54167V13.4583C15.5834 13.8341 15.4342 14.1944 15.1685 14.4601C14.9028 14.7257 14.5425 14.875 14.1667 14.875H2.83341C2.45769 14.875 2.09736 14.7257 1.83168 14.4601C1.566 14.1944 1.41675 13.8341 1.41675 13.4583V3.54167C1.41675 3.16594 1.566 2.80561 1.83168 2.53993C2.09736 2.27426 2.45769 2.125 2.83341 2.125H14.1667ZM14.1667 3.54167H2.83341V10.6958L6.37154 7.15842C6.45376 7.07617 6.55138 7.01093 6.65882 6.96642C6.76626 6.92191 6.88141 6.899 6.99771 6.899C7.114 6.899 7.22916 6.92191 7.3366 6.96642C7.44403 7.01093 7.54165 7.07617 7.62387 7.15842L10.5032 10.0385L11.3802 9.16158C11.4624 9.07934 11.56 9.0141 11.6674 8.96959C11.7749 8.92508 11.89 8.90217 12.0063 8.90217C12.1226 8.90217 12.2378 8.92508 12.3452 8.96959C12.4527 9.0141 12.5503 9.07934 12.6325 9.16158L14.1667 10.6965V3.54167ZM10.9792 4.95833C11.261 4.95833 11.5313 5.07027 11.7305 5.26953C11.9298 5.46879 12.0417 5.73904 12.0417 6.02083C12.0417 6.30263 11.9298 6.57288 11.7305 6.77213C11.5313 6.97139 11.261 7.08333 10.9792 7.08333C10.6975 7.08333 10.4272 6.97139 10.2279 6.77213C10.0287 6.57288 9.91675 6.30263 9.91675 6.02083C9.91675 5.73904 10.0287 5.46879 10.2279 5.26953C10.4272 5.07027 10.6975 4.95833 10.9792 4.95833Z" fill="black"/>
</g>
<defs>
<clipPath id="clip0_1629_788">
<rect width="17" height="17" fill="white"/>
</clipPath>
</defs>
</svg>
