<svg width="16" height="16" viewBox="0 0 16 16" fill="none" xmlns="http://www.w3.org/2000/svg">
<path d="M7.99992 1.33333C8.98808 1.33233 9.96406 1.55145 10.857 1.97477C11.7499 2.3981 12.5372 3.015 13.1619 3.78066L8.94258 8L13.1619 12.2193C12.5372 12.985 11.7499 13.6019 10.857 14.0252C9.96406 14.4486 8.98808 14.6677 7.99992 14.6667C4.31792 14.6667 1.33325 11.682 1.33325 8C1.33325 4.318 4.31792 1.33333 7.99992 1.33333ZM7.99992 3.33333C7.7347 3.33333 7.48035 3.43869 7.29281 3.62622C7.10528 3.81376 6.99992 4.06811 6.99992 4.33333C6.99992 4.59855 7.10528 4.8529 7.29281 5.04044C7.48035 5.22797 7.7347 5.33333 7.99992 5.33333C8.26514 5.33333 8.51949 5.22797 8.70703 5.04044C8.89456 4.8529 8.99992 4.59855 8.99992 4.33333C8.99992 4.06811 8.89456 3.81376 8.70703 3.62622C8.51949 3.43869 8.26514 3.33333 7.99992 3.33333Z" fill="black"/>
</svg>
